# xmcd
#
# Track frame offsets: 
#        150
#        9915
#        27292
#        44202
#        63540
#        75507
#        93362
#        108750
#        127702
#
# Disc length: 1979 seconds
#
# Revision: 0
# Processed by: cddbd v1.5.2PL0 Copyright (c) Steve Scherf et al.
# Submitted via: ExactAudioCopy v1.3
#
DISCID=6307b909
DTITLE=The Willis Family - Traveling On
DYEAR=2000
DGENRE=Southern Gospel
TTITLE0=Shoutin' Time
TTITLE1=You Can't Ask Too Much Of My God
TTITLE2=I Know A Man Who Can
TTITLE3=Miracle In Me
TTITLE4=Traveling On
TTITLE5=The Blood Is Still There
TTITLE6=The Lighthouse
TTITLE7=Oh For A Thousand Tongues
TTITLE8=We Shall Behold the King
EXTD=
EXTT0=
EXTT1=
EXTT2=
EXTT3=
EXTT4=
EXTT5=
EXTT6=
EXTT7=
EXTT8=
PLAYORDER=
